<svg xmlns="http://www.w3.org/2000/svg" xmlns:xlink="http://www.w3.org/1999/xlink" width="37" height="37" viewBox="0 0 37 37">
    <defs>
        <path id="a" d="M0 .667h1.764v5.857H0z"/>
        <path id="c" d="M.23.663h5.875v1.664H.229z"/>
        <path id="e" d="M.008.31h5.876v1.664H.008z"/>
    </defs>
    <g fill="none" fill-rule="evenodd">
        <path fill="#3E4D73" d="M10.439 23.89c-.104.4-.436.498-.738.215l-5.886-5.492c-.303-.282-.236-.639.149-.793l8.256-3.3c.384-.153.614.049.51.45l-2.291 8.92z"/>
        <path fill="#536696" d="M5.575 29.11c-.313.27-.63.157-.704-.25l-1.613-8.925c-.074-.407.113-.51.416-.227l5.6 5.227a.661.661 0 0 1-.02 1.005l-3.679 3.17zM12.332 12.743c.27.315.177.697-.208.85l-8.21 3.282c-.384.154-.581-.038-.436-.426l3.371-9.06c.144-.389.484-.45.753-.136l4.73 5.49zM3.73 27.592c.074.407-.049.456-.274.108L.272 22.784c-.226-.348-.207-.904.041-1.235l1.422-1.905c.247-.332.51-.27.584.137l1.412 7.81zM2.728 15.893c-.144.388-.37.384-.5-.009l-1.087-3.263c-.131-.392.013-.942.32-1.22l3.876-3.514c.307-.277.44-.187.295.2l-2.904 7.806z"/>
        <g transform="translate(0 13.649)">
            <mask id="b" fill="#fff">
                <use xlink:href="#a"/>
            </mask>
            <path fill="#536696" d="M1.706 3.502c.13.393.035.986-.213 1.318L.38 6.312c-.248.332-.416.266-.373-.145L.54.987C.583.575.725.558.855.952l.85 2.55z" mask="url(#b)"/>
        </g>
        <path fill="#536696" d="M6.08 5.486c.139.16 0 .518-.306.796L4.029 7.864c-.306.278-.355.233-.109-.099L5.381 5.8c.247-.332.562-.474.7-.313M17.086 33.055c-.21.358-.572.372-.806.03l-4.56-6.635c-.235-.341-.09-.655.323-.698l9.16-.945c.412-.042.58.215.37.573l-4.487 7.675zM15.176 33.062c.235.341.106.511-.286.378l-8.588-2.918c-.391-.133-.456-.464-.142-.733l3.68-3.17a.662.662 0 0 1 .997.129l4.34 6.314z"/>
        <path fill="#5FC4D7" d="M21.394 23.265c.27.314.154.606-.257.648l-9.296.96c-.413.042-.666-.252-.563-.652l2.327-9.052c.103-.401.409-.473.68-.16l7.11 8.256z"/>
        <path fill="#536696" d="M28.075 31.022c.271.314.16.64-.245.726l-9.46 1.99c-.405.086-.566-.137-.357-.494l4.462-7.633c.209-.357.601-.393.871-.08l4.73 5.491zM12.857 36.113c-.365.196-.917.131-1.227-.142l-4.391-3.878c-.31-.274-.244-.39.148-.256l7.516 2.554c.393.133.414.402.05.599l-2.096 1.123zM23.063 36.482c-.32.262-.885.323-1.254.135l-3.065-1.558c-.37-.188-.34-.411.066-.497l8.148-1.715c.406-.085.475.06.155.322l-4.05 3.313z"/>
        <g transform="translate(13.96 34.588)">
            <mask id="d" fill="#fff">
                <use xlink:href="#c"/>
            </mask>
            <path fill="#536696" d="M.567 2.085c-.413-.018-.453-.194-.088-.39l1.64-.88c.366-.196.966-.202 1.335-.016L5.85 2.02c.37.187.332.325-.081.306l-5.202-.24z" mask="url(#d)"/>
        </g>
        <path fill="#536696" d="M29.598 32.79c.138.16-.049.45-.414.645l-2.16 1.153c-.366.195-.402.14-.082-.122l1.823-1.49c.32-.263.695-.346.833-.187"/>
        <path fill="#3E4D73" d="M24.138 23.17c-.385.154-.615-.049-.512-.45l2.293-8.92c.103-.4.435-.498.738-.215l5.886 5.492c.303.282.236.639-.149.793l-8.256 3.3z"/>
        <path fill="#536696" d="M33.1 17.755c.074.408-.113.51-.416.227l-5.602-5.226a.662.662 0 0 1 .02-1.005l3.68-3.17c.314-.27.63-.159.705.25l1.613 8.924zM29.508 30.302c-.144.388-.483.45-.754.135l-4.729-5.49c-.27-.314-.176-.697.208-.85l8.21-3.282c.385-.154.581.038.437.426l-3.372 9.061zM36.086 14.906c.225.348.207.903-.041 1.235l-1.422 1.906c-.247.332-.51.27-.585-.137l-1.411-7.811c-.074-.408.05-.457.275-.11l3.184 4.917zM35.217 25.07c.131.391-.013.94-.32 1.219l-3.877 3.514c-.307.277-.44.188-.295-.2l2.905-7.806c.144-.388.37-.384.5.009l1.087 3.263zM35.818 23.055c-.043.411-.184.427-.315.034l-.851-2.55c-.13-.393-.035-.986.212-1.318l1.114-1.492c.247-.331.416-.266.373.146l-.533 5.18zM30.977 31.891c-.248.333-.563.473-.7.313-.138-.16 0-.518.306-.796l1.745-1.581c.307-.279.356-.234.109.099l-1.46 1.965z"/>
        <path fill="#3E4D73" d="M24.638 11.24c.234.34.088.655-.324.697l-9.16.946c-.412.042-.578-.214-.37-.573l4.488-7.675c.21-.358.572-.371.807-.03l4.559 6.635z"/>
        <path fill="#536696" d="M26.517 11.071a.66.66 0 0 1-.997-.13l-4.339-6.313c-.235-.34-.105-.512.286-.378l8.588 2.918c.392.134.456.463.142.734l-3.68 3.17zM22.752 22.521c-.103.402-.408.473-.678.16l-7.111-8.256c-.27-.314-.154-.605.257-.647l9.297-.96c.413-.042.665.25.562.652l-2.327 9.051zM13.882 12.08c-.21.357-.6.392-.87.078l-4.73-5.49c-.27-.314-.16-.64.245-.725l9.46-1.992c.406-.085.566.137.357.495l-4.462 7.633zM21.455 3.299c-.393-.134-.414-.403-.05-.598l2.096-1.124c.364-.196.916-.132 1.227.142l4.39 3.878c.31.273.244.389-.149.255L21.455 3.3zM9.399 4.843c-.405.086-.474-.06-.154-.322l4.05-3.313c.32-.262.884-.323 1.254-.135l3.065 1.559c.369.187.34.41-.065.496L9.4 4.843z"/>
        <g transform="translate(16.286 .465)">
            <mask id="f" fill="#fff">
                <use xlink:href="#e"/>
            </mask>
            <path fill="#536696" d="M3.994 1.822c-.366.196-.965.203-1.335.015L.263.62C-.107.43-.07.293.343.312l5.203.24c.414.019.453.195.089.39l-1.641.88z" mask="url(#f)"/>
        </g>
        <path fill="#536696" d="M7.593 4.715c-.32.262-.695.346-.833.186-.138-.16.048-.45.414-.646l2.16-1.154c.366-.194.402-.14.082.124l-1.823 1.49zM4.82 30.943c.16-.138.518 0 .796.307l1.58 1.745c.28.307.235.356-.098.109l-1.966-1.461c-.332-.248-.473-.562-.312-.7M32.123 7.426c.16-.138.45.048.646.414L33.92 10c.195.365.14.402-.122.082l-1.49-1.823c-.262-.32-.345-.695-.186-.833M31.225 6.048c.333.246.473.561.313.699-.16.138-.518 0-.796-.307l-1.581-1.744c-.279-.307-.234-.356.098-.109l1.966 1.46zM4.049 29.43c.262.321.345.696.185.834-.16.138-.45-.048-.645-.414l-1.154-2.16c-.195-.365-.14-.403.123-.082l1.49 1.823z"/>
    </g>
</svg>
